<svg xmlns="http://www.w3.org/2000/svg" xmlns:xlink="http://www.w3.org/1999/xlink" width="160" height="82" viewBox="0 0 160 82">
  <defs>
    <linearGradient id="linear-gradient" x1="0.5" x2="0.5" y2="1" gradientUnits="objectBoundingBox">
      <stop offset="0" stop-color="#fff"/>
      <stop offset="1" stop-color="gray"/>
    </linearGradient>
    <filter id="Rectangle_1" x="0" y="0" width="160" height="82" filterUnits="userSpaceOnUse">
      <feOffset dy="3" input="SourceAlpha"/>
      <feGaussianBlur stdDeviation="3" result="blur"/>
      <feFlood flood-color="#fff" flood-opacity="0.161"/>
      <feComposite operator="in" in2="blur"/>
      <feComposite in="SourceGraphic"/>
    </filter>
    <filter id="Path_51" x="18.699" y="7.549" width="49.054" height="66.902" filterUnits="userSpaceOnUse">
      <feOffset dy="3" input="SourceAlpha"/>
      <feGaussianBlur stdDeviation="3" result="blur-2"/>
      <feFlood flood-opacity="0.161"/>
      <feComposite operator="in" in2="blur-2"/>
      <feComposite in="SourceGraphic"/>
    </filter>
  </defs>
  <g id="CSM_logo_small" transform="translate(9 6)">
    <g transform="matrix(1, 0, 0, 1, -9, -6)" filter="url(#Rectangle_1)">
      <rect id="Rectangle_1-2" data-name="Rectangle 1" width="142" height="64" rx="10" transform="translate(9 6)" fill="url(#linear-gradient)"/>
    </g>
    <g id="icon-1719742" transform="translate(7.275 7.549)">
      <g transform="matrix(1, 0, 0, 1, -16.27, -13.55)" filter="url(#Path_51)">
        <path id="Path_51-2" data-name="Path 51" d="M100.137,108.862c-2.2,0-4.684-1-7.284-2.957-4.06-3.064-7.954-8.147-10.962-14.314a47.4,47.4,0,0,1-5-18.39c-.218-5.861,1.243-10.169,4.116-12.131s6.757-1.306,10.937,1.847c4.06,3.064,7.954,8.147,10.962,14.314a47.4,47.4,0,0,1,5,18.39c.218,5.861-1.244,10.169-4.116,12.131A6.353,6.353,0,0,1,100.137,108.862ZM84.671,61.4a5.3,5.3,0,0,0-3.053.917C79.157,64,77.911,67.84,78.108,73.138a45.745,45.745,0,0,0,4.834,17.735c2.913,5.97,6.664,10.878,10.563,13.82,3.779,2.852,7.215,3.5,9.676,1.815s3.708-5.525,3.51-10.823a45.744,45.744,0,0,0-4.834-17.735c-2.913-5.97-6.664-10.878-10.563-13.82C88.895,62.318,86.633,61.4,84.671,61.4Z" transform="translate(-49.17 -46.41)" fill="#42366c"/>
      </g>
      <path id="Path_52" data-name="Path 52" d="M84.669,108.863a6.353,6.353,0,0,1-3.653-1.11c-2.873-1.962-4.335-6.271-4.116-12.131a47.4,47.4,0,0,1,5-18.39c3.009-6.166,6.9-11.25,10.962-14.314,4.18-3.153,8.064-3.811,10.937-1.847s4.335,6.271,4.116,12.131a47.4,47.4,0,0,1-5,18.39c-3.009,6.166-6.9,11.25-10.962,14.314-2.6,1.961-5.085,2.957-7.285,2.957ZM100.135,61.4c-1.962,0-4.223.921-6.624,2.732-3.9,2.942-7.65,7.85-10.563,13.82a45.743,45.743,0,0,0-4.834,17.735c-.2,5.3,1.049,9.142,3.51,10.823s5.9,1.037,9.677-1.815c3.9-2.942,7.65-7.85,10.563-13.82A45.743,45.743,0,0,0,106.7,73.138c.2-5.3-1.049-9.142-3.51-10.823a5.306,5.306,0,0,0-3.052-.917Z" transform="translate(-65.452 -59.961)" fill="#f58b0e"/>
      <path id="Path_53" data-name="Path 53" d="M79.952,110.068a52.685,52.685,0,0,1-18.881-3.127c-5.2-2.076-8.071-4.877-8.071-7.887s2.866-5.812,8.071-7.887A52.685,52.685,0,0,1,79.952,88.04a52.685,52.685,0,0,1,18.881,3.127c5.2,2.076,8.071,4.877,8.071,7.887s-2.866,5.812-8.071,7.887A52.685,52.685,0,0,1,79.952,110.068Zm0-20.925c-14.069,0-25.515,4.446-25.515,9.911s11.446,9.911,25.515,9.911,25.515-4.446,25.515-9.911-11.446-9.911-25.515-9.911Z" transform="translate(-53 -74.603)" fill="#4a3030"/>
    </g>
    <text id="Community_Science_Museum" data-name="Community
Science
Museum" transform="translate(66.725 20.608)" fill="#312424" font-size="14" font-family="Baskerville"><tspan x="0" y="0">Community</tspan><tspan x="0" y="16">Science</tspan><tspan x="0" y="32">Museum</tspan></text>
  </g>
</svg>
